<svg width="512" height="512" viewBox="0 0 512 512" fill="none" xmlns="http://www.w3.org/2000/svg">
<defs>
  <linearGradient id="bg" x1="64" y1="64" x2="448" y2="448" gradientUnits="userSpaceOnUse">
    <stop stop-color="#DBEAFE"/>
    <stop offset="1" stop-color="#BAE6FD"/>
  </linearGradient>
  <linearGradient id="shield" x1="256" y1="100" x2="256" y2="374" gradientUnits="userSpaceOnUse">
    <stop stop-color="#22D3EE"/>
    <stop offset="1" stop-color="#2563EB"/>
  </linearGradient>
</defs>
<circle cx="256" cy="256" r="208" fill="url(#bg)"/>
<circle cx="256" cy="256" r="182" stroke="#FFFFFF" stroke-opacity="0.72" stroke-width="10"/>
<path d="M256 108L354 148V236C354 308 314 364 256 402C198 364 158 308 158 236V148L256 108Z" fill="url(#shield)"/>
<path d="M256 154L314 178V236C314 281 291 322 256 349C221 322 198 281 198 236V178L256 154Z" fill="#E0F2FE" opacity="0.92"/>
<path d="M228 240L248 260L286 220" stroke="#2563EB" stroke-width="18" stroke-linecap="round" stroke-linejoin="round"/>
</svg>