<svg width="1024" height="1024" viewBox="0 0 1024 1024" fill="none" xmlns="http://www.w3.org/2000/svg">
<defs>
  <radialGradient id="core" cx="0" cy="0" r="1" gradientUnits="userSpaceOnUse" gradientTransform="translate(512 512) rotate(90) scale(220)">
    <stop stop-color="#F8FAFC"/>
    <stop offset="0.42" stop-color="#93C5FD"/>
    <stop offset="1" stop-color="#1E293B"/>
  </radialGradient>
  <linearGradient id="spike" x1="512" y1="112" x2="512" y2="912" gradientUnits="userSpaceOnUse">
    <stop stop-color="#F97316"/>
    <stop offset="1" stop-color="#EF4444"/>
  </linearGradient>
</defs>
<circle cx="512" cy="512" r="210" fill="url(#core)"/>
<circle cx="512" cy="512" r="84" fill="#22D3EE"/>
<circle cx="512" cy="512" r="38" fill="#F8FAFC"/>
<path d="M512 110L566 286H458L512 110Z" fill="url(#spike)"/>
<path d="M512 914L458 738H566L512 914Z" fill="url(#spike)"/>
<path d="M110 512L286 458V566L110 512Z" fill="url(#spike)"/>
<path d="M914 512L738 566V458L914 512Z" fill="url(#spike)"/>
<path d="M238 238L364 372L284 442L238 238Z" fill="url(#spike)"/>
<path d="M786 786L660 652L740 582L786 786Z" fill="url(#spike)"/>
<path d="M786 238L740 442L660 372L786 238Z" fill="url(#spike)"/>
<path d="M238 786L284 582L364 652L238 786Z" fill="url(#spike)"/>
<ellipse cx="512" cy="834" rx="196" ry="34" fill="#38BDF8" opacity="0.14"/>
</svg>