<svg width="1024" height="1024" viewBox="0 0 1024 1024" fill="none" xmlns="http://www.w3.org/2000/svg">
<defs>
  <linearGradient id="drone" x1="248" y1="358" x2="786" y2="666" gradientUnits="userSpaceOnUse">
    <stop stop-color="#E2E8F0"/>
    <stop offset="1" stop-color="#475569"/>
  </linearGradient>
  <linearGradient id="beam" x1="238" y1="512" x2="786" y2="512" gradientUnits="userSpaceOnUse">
    <stop stop-color="#22D3EE"/>
    <stop offset="0.5" stop-color="#3B82F6"/>
    <stop offset="1" stop-color="#8B5CF6"/>
  </linearGradient>
</defs>
<rect x="266" y="392" width="492" height="240" rx="120" fill="url(#drone)"/>
<rect x="224" y="466" width="576" height="92" rx="46" fill="url(#beam)" opacity="0.94"/>
<circle cx="334" cy="512" r="62" fill="#0F172A"/>
<circle cx="334" cy="512" r="24" fill="#22D3EE"/>
<circle cx="690" cy="512" r="62" fill="#0F172A"/>
<circle cx="690" cy="512" r="24" fill="#22D3EE"/>
<path d="M266 426L154 364L226 504L266 426Z" fill="#FB7185"/>
<path d="M758 426L870 364L798 504L758 426Z" fill="#FB7185"/>
<path d="M266 598L154 660L226 520L266 598Z" fill="#FB7185"/>
<path d="M758 598L870 660L798 520L758 598Z" fill="#FB7185"/>
<rect x="432" y="332" width="160" height="48" rx="24" fill="#F8FAFC" opacity="0.72"/>
</svg>