<svg width="1080" height="1920" viewBox="0 0 1080 1920" fill="none" xmlns="http://www.w3.org/2000/svg">
<defs>
<linearGradient id="a" x1="540" y1="0" x2="540" y2="1920" gradientUnits="userSpaceOnUse"><stop stop-color="#020617"/><stop offset="0.5" stop-color="#0F172A"/><stop offset="1" stop-color="#1E1B4B"/></linearGradient>
<linearGradient id="b" x1="200" y1="920" x2="880" y2="1260" gradientUnits="userSpaceOnUse"><stop stop-color="#1E293B"/><stop offset="1" stop-color="#0F172A"/></linearGradient>
<linearGradient id="c" x1="120" y1="1140" x2="960" y2="1560" gradientUnits="userSpaceOnUse"><stop stop-color="#0EA5E9" stop-opacity="0.62"/><stop offset="1" stop-color="#020617"/></linearGradient>
<linearGradient id="d" x1="540" y1="1360" x2="540" y2="1920" gradientUnits="userSpaceOnUse"><stop stop-color="#1D4ED8" stop-opacity="0.88"/><stop offset="1" stop-color="#020617"/></linearGradient>
</defs>
<rect width="1080" height="1920" fill="url(#a)"/>
<ellipse cx="540" cy="1020" rx="520" ry="240" fill="#93C5FD" opacity="0.05"/>
<circle cx="150" cy="175" r="3" fill="#F8FAFC" opacity="0.85"/>
<circle cx="380" cy="95" r="4" fill="#F8FAFC" opacity="0.85"/>
<circle cx="580" cy="125" r="3" fill="#F8FAFC" opacity="0.85"/>
<circle cx="800" cy="145" r="4" fill="#F8FAFC" opacity="0.85"/>
<circle cx="930" cy="205" r="4" fill="#F8FAFC" opacity="0.85"/>
<circle cx="870" cy="88" r="3" fill="#F8FAFC" opacity="0.85"/>
<circle cx="820" cy="260" r="78" fill="#F8FAFC"/>
<circle cx="836" cy="252" r="62" fill="#020617"/>
<ellipse cx="210" cy="315" rx="210" ry="46" fill="#CBD5E1" opacity="0.5"/>
<ellipse cx="805" cy="268" rx="230" ry="50" fill="#CBD5E1" opacity="0.5"/>
<ellipse cx="560" cy="405" rx="200" ry="36" fill="#CBD5E1" opacity="0.4"/>
<g opacity="0.2" fill="#FFF">
<rect x="110" y="825" width="68" height="158" rx="6"/>
<rect x="285" y="785" width="82" height="198" rx="6"/>
<rect x="485" y="805" width="72" height="178" rx="6"/>
<rect x="675" y="775" width="88" height="208" rx="6"/>
<rect x="875" y="795" width="70" height="182" rx="6"/>
</g>
<path d="M0 1020C92 980 180 924 282 938C390 952 448 1015 540 1004C638 992 714 900 816 908C916 916 986 982 1080 1018V1460H0V1020Z" fill="url(#b)"/>
<path d="M0 1212C118 1128 236 1110 338 1148C452 1191 520 1265 622 1244C738 1220 802 1100 918 1088C990 1080 1034 1105 1080 1140V1600H0V1212Z" fill="url(#c)"/>
<path d="M0 1390C160 1328 296 1320 402 1372C496 1418 584 1444 680 1422C778 1398 870 1328 1080 1348V1920H0V1390Z" fill="url(#d)"/>
<path d="M430 1460L350 1920H730L650 1460H430Z" fill="#F8FAFC" opacity="0.06"/>
<path d="M498 1460L470 1920H610L582 1460H498Z" fill="#F8FAFC" opacity="0.05"/>
<path d="M224 1498v66M344 1548v74M464 1600v82M616 1600v82M736 1548v74M856 1498v66" stroke="#F8FAFC" stroke-width="8" stroke-linecap="round" opacity="0.35"/>
</svg>
